<?xml version="1.0" encoding="iso-8859-1"?>
<!-- Generator: Adobe Illustrator 19.0.0, SVG Export Plug-In . SVG Version: 6.00 Build 0)  -->
<svg version="1.1" id="Layer_1" xmlns="http://www.w3.org/2000/svg" xmlns:xlink="http://www.w3.org/1999/xlink" x="0px" y="0px"
	 viewBox="0 0 512 512" style="enable-background:new 0 0 512 512;" xml:space="preserve">
<circle style="fill:#FC6F58;" cx="256" cy="256" r="256"/>
<path style="fill:#F1543F;" d="M508.65,297.405L401.094,189.847l-26.871,8.539L260.237,87.545l-8.654,106.932l-85.152,69.93
	l-59.518,92.972l154.552,154.552C386.296,509.316,489.141,417.351,508.65,297.405z"/>
<path style="fill:#FFFFFF;" d="M256,199.111L256,199.111c-2.857,0-5.172-2.315-5.172-5.172V90.505c0-2.857,2.315-5.172,5.172-5.172
	l0,0c2.857,0,5.172,2.315,5.172,5.172v103.434C261.172,196.796,258.855,199.111,256,199.111z"/>
<path style="fill:#E6F3FF;" d="M256,85.333c-0.197,0-0.383,0.036-0.574,0.059v113.662c0.191,0.021,0.378,0.059,0.574,0.059
	c2.857,0,5.172-2.315,5.172-5.172V90.507C261.172,87.649,258.855,85.333,256,85.333z"/>
<path style="fill:#808183;" d="M277.261,199.111h-42.524c-3.967,0-7.184-3.215-7.184-7.182V177.85c0-3.967,3.215-7.182,7.184-7.182
	h42.524c3.967,0,7.184,3.215,7.184,7.182v14.079C284.444,195.896,281.228,199.111,277.261,199.111z"/>
<path style="fill:#59595B;" d="M277.261,170.667h-21.837v28.444h21.837c3.967,0,7.184-3.215,7.184-7.184v-14.079
	C284.444,173.882,281.228,170.667,277.261,170.667z"/>
<path style="fill:#CFDBE6;" d="M343.414,225.742V192.3h-174.83v33.442l-67.736-8.466v126.147c0,13.093,14.152,23.705,31.608,23.705
	c11.343,0,21.816-4.558,27.443-11.945l67.015-87.957h58.17l67.015,87.957c5.627,7.387,16.101,11.945,27.443,11.945
	c17.456,0,31.608-10.614,31.608-23.705V217.276L343.414,225.742z"/>
<path style="fill:#B8C9D9;" d="M343.414,225.742V192.3h-87.988v74.926h29.658l67.015,87.957
	c5.627,7.385,16.101,11.945,27.443,11.945c17.456,0,31.608-10.614,31.608-23.705V217.276L343.414,225.742z"/>
<circle style="fill:#E6F3FF;" cx="171.942" cy="226.314" r="71.094"/>
<circle style="fill:#CFDBE6;" cx="340.058" cy="226.314" r="71.094"/>
<path style="fill:#B8C9D9;" d="M199.601,215.119h-10.552c-3.267,0-5.915-2.648-5.915-5.915v-10.552c0-3.267-2.648-5.915-5.915-5.915
	h-10.552c-3.267,0-5.915,2.648-5.915,5.915v10.552c0,3.267-2.648,5.915-5.915,5.915h-10.552c-3.267,0-5.915,2.648-5.915,5.915
	v10.552c0,3.267,2.648,5.915,5.915,5.915h10.552c3.267,0,5.915,2.648,5.915,5.915v10.552c0,3.267,2.648,5.915,5.915,5.915h10.552
	c3.267,0,5.915-2.648,5.915-5.915v-10.552c0-3.267,2.648-5.915,5.915-5.915h10.552c3.267,0,5.915-2.648,5.915-5.915v-10.552
	C205.515,217.767,202.867,215.119,199.601,215.119z"/>
<circle style="fill:#4CDBC4;" cx="358.072" cy="208.282" r="14.564"/>
<circle style="fill:#B8C9D9;" cx="322.043" cy="244.329" r="14.564"/>
<circle style="fill:#FD8469;" cx="358.072" cy="244.329" r="14.564"/>
<circle style="fill:#FF80AA;" cx="322.043" cy="208.282" r="14.564"/>
<g>
</g>
<g>
</g>
<g>
</g>
<g>
</g>
<g>
</g>
<g>
</g>
<g>
</g>
<g>
</g>
<g>
</g>
<g>
</g>
<g>
</g>
<g>
</g>
<g>
</g>
<g>
</g>
<g>
</g>
</svg>
