<svg width="20" height="20" viewBox="0 0 20 20" fill="none" xmlns="http://www.w3.org/2000/svg">
<path d="M7.69574 20C9.00152 20 10.0601 18.9414 10.0601 17.6357C10.0601 16.3299 9.00152 15.2714 7.69574 15.2714C6.38996 15.2714 5.33142 16.3299 5.33142 17.6357C5.33142 18.9414 6.38996 20 7.69574 20Z" fill="#6241B3"/>
<path d="M14.5958 15.2714C13.2901 15.2714 12.2316 16.33 12.2316 17.6357C12.2316 18.9414 13.2901 20 14.5958 20C15.9015 20 16.9601 18.9414 16.9601 17.6357C16.9601 16.33 15.9015 15.2714 14.5958 15.2714Z" fill="#6241B3"/>
<path d="M18.6248 12.8589H6.29671L6.05546 11.4596H16.1881C16.4862 11.4605 16.7543 11.2785 16.8636 11.0012L19.2761 4.92163C19.4227 4.54977 19.24 4.12946 18.8682 3.98291C18.783 3.94932 18.6922 3.93221 18.6006 3.9325H4.80094L4.22193 0.603204C4.16247 0.251173 3.85515 -0.00492288 3.49817 7.1807e-05H0.72376C0.324043 7.1807e-05 0 0.324114 0 0.723831C0 1.12355 0.324043 1.44759 0.72376 1.44759H2.89504L4.96982 13.7032C5.02928 14.0553 5.3366 14.3114 5.69358 14.3064H18.6248C19.0245 14.3064 19.3485 13.9823 19.3485 13.5826C19.3485 13.1829 19.0245 12.8589 18.6248 12.8589Z" fill="#6241B3"/>
</svg>
